#N canvas 716 71 492 518 10;
#X obj 72 199 route list;
#X msg 45 131 start;
#X msg 98 132 stop;
#X msg 44 162 reset;
#X obj 20 310 print message:::;
#X msg 161 81 suite redis_list_suite.lua;
#X msg 133 20 suite redis_server_suite.lua;
#X obj 272 358 print out:::;
#X obj 217 332 print f:::;
#X obj 171 372 print s:::;
#X obj 77 351 print l:::;
#X obj 160 316 list;
#X obj 128 176 pdtest l s f b;
#X msg 142 41 suite redis_keys_suite.lua;
#X obj 193 283 route list symbol float bang;
#X obj 363 336 print not:::;
#X obj 124 238 apuredis;
#X msg 147 62 suite redis_string_suite.lua;
#X obj 125 -47 bng 15 250 50 0 empty empty empty 17 7 0 10 -262144
-1 -1;
#X obj 304 261 print apuredis-f;
#X obj 256 231 metro 500;
#X obj 336 243 print metro-b;
#X msg 169 102 suite redis_hash_suite.lua;
#X msg 178 128 suite redis_set_suite.lua;
#X msg 179 150 suite redis_zset_suite.lua;
#X obj 126 -15 trigger b b b b b b b;
#X connect 0 0 16 0;
#X connect 1 0 12 0;
#X connect 2 0 12 0;
#X connect 3 0 12 0;
#X connect 5 0 12 0;
#X connect 6 0 12 0;
#X connect 11 0 12 1;
#X connect 12 0 0 0;
#X connect 12 0 4 0;
#X connect 13 0 12 0;
#X connect 14 0 11 0;
#X connect 14 1 12 2;
#X connect 14 2 12 3;
#X connect 14 3 12 4;
#X connect 14 4 15 0;
#X connect 16 0 14 0;
#X connect 16 1 19 0;
#X connect 16 1 20 0;
#X connect 17 0 12 0;
#X connect 18 0 25 0;
#X connect 20 0 16 0;
#X connect 20 0 21 0;
#X connect 22 0 12 0;
#X connect 23 0 12 0;
#X connect 24 0 12 0;
#X connect 25 0 6 0;
#X connect 25 1 13 0;
#X connect 25 2 17 0;
#X connect 25 3 5 0;
#X connect 25 4 22 0;
#X connect 25 5 23 0;
#X connect 25 6 24 0;
