#N canvas 701 58 542 337 10;
#X msg 29 103 start;
#X msg 86 104 stop;
#X msg 30 144 reset;
#X obj 126 144 pdtest l s f b;
#X obj 96 173 route list;
#X obj 96 205 apuredis;
#X obj 97 244 route list symbol float bang;
#X obj 171 202 metro 500;
#X obj 97 275 list;
#X obj 279 227 puredis;
#X obj -28 245 print apuredis:::;
#X obj -25 274 print apuredis-f:::;
#X msg -21 183 start;
#X msg -21 209 stop;
#X msg 133 68 suite apuredis_async_list_suite.lua;
#X msg 234 130 command rpush mylpoplist value1;
#X msg 254 156 command rpush myrpoplist value1;
#X msg 275 180 command rpush myrpoppushlist value1;
#X obj 131 13 bng 15 250 50 0 empty empty empty 17 7 0 10 -262144 -1
-1;
#X obj 132 38 trigger b b b b;
#X obj 229 100 delay 1000;
#X obj 295 100 delay 2000;
#X obj 362 100 delay 3000;
#X connect 0 0 3 0;
#X connect 1 0 3 0;
#X connect 2 0 3 0;
#X connect 3 0 4 0;
#X connect 4 0 5 0;
#X connect 5 0 10 0;
#X connect 5 0 6 0;
#X connect 5 1 11 0;
#X connect 5 1 7 0;
#X connect 6 0 8 0;
#X connect 6 1 3 2;
#X connect 6 2 3 3;
#X connect 6 3 3 4;
#X connect 7 0 5 0;
#X connect 8 0 3 1;
#X connect 12 0 5 0;
#X connect 13 0 5 0;
#X connect 14 0 3 0;
#X connect 15 0 9 0;
#X connect 16 0 9 0;
#X connect 17 0 9 0;
#X connect 18 0 19 0;
#X connect 19 0 14 0;
#X connect 19 1 20 0;
#X connect 19 2 21 0;
#X connect 19 3 22 0;
#X connect 20 0 15 0;
#X connect 21 0 16 0;
#X connect 22 0 17 0;
