#N canvas 623 49 490 504 10;
#X obj 32 114 route list;
#X msg 40 51 start;
#X msg 93 52 stop;
#X msg 39 82 reset;
#X obj 17 190 print message:::;
#X msg 149 50 suite redis_list_suite.lua;
#X msg 133 9 suite redis_server_suite.lua;
#X obj 269 238 print out:::;
#X obj 214 212 print f:::;
#X obj 168 252 print s:::;
#X obj 74 231 print l:::;
#X obj 157 196 list;
#X obj 123 96 pdtest l s f b;
#X msg 142 30 suite redis_keys_suite.lua;
#X obj 190 163 route list symbol float bang;
#X obj 360 216 print not:::;
#X obj 127 131 apuredis;
#X obj 253 111 metro 500;
#X connect 0 0 16 0;
#X connect 1 0 12 0;
#X connect 2 0 12 0;
#X connect 3 0 12 0;
#X connect 5 0 12 0;
#X connect 6 0 12 0;
#X connect 11 0 12 1;
#X connect 12 0 0 0;
#X connect 13 0 12 0;
#X connect 14 0 11 0;
#X connect 14 1 12 2;
#X connect 14 2 12 3;
#X connect 14 3 12 4;
#X connect 14 4 15 0;
#X connect 16 0 14 0;
#X connect 16 1 17 0;
#X connect 17 0 16 0;
