#N canvas 701 58 528 285 10;
#X msg 27 55 start;
#X msg 84 56 stop;
#X msg 28 96 reset;
#X obj 124 96 pdtest l s f b;
#X obj 94 125 route list;
#X obj 94 157 apuredis;
#X obj 95 196 route list symbol float bang;
#X obj 169 154 metro 500;
#X obj 95 227 list;
#X msg 131 20 suite apuredis_blpop_list_suite.lua;
#X obj 310 154 puredis;
#X msg 307 114 command rpush mylist value1;
#X obj -30 197 print apuredis:::;
#X obj -27 226 print apuredis-f:::;
#X msg -23 135 start;
#X msg -23 161 stop;
#X connect 0 0 3 0;
#X connect 1 0 3 0;
#X connect 2 0 3 0;
#X connect 3 0 4 0;
#X connect 4 0 5 0;
#X connect 5 0 12 0;
#X connect 5 0 6 0;
#X connect 5 1 13 0;
#X connect 5 1 7 0;
#X connect 6 0 8 0;
#X connect 6 1 3 2;
#X connect 6 2 3 3;
#X connect 6 3 3 4;
#X connect 7 0 5 0;
#X connect 8 0 3 1;
#X connect 9 0 3 0;
#X connect 11 0 10 0;
#X connect 14 0 5 0;
#X connect 15 0 5 0;
