#N canvas 741 80 450 300 10;
#X obj 55 141 spuredis;
#X obj 112 107 route spuredis puredis;
#X obj 156 144 puredis;
#X obj 53 195 route list symbol float bang;
#X obj 54 234 list;
#X obj 114 51 pdtest l s f b;
#X msg 114 19 suite spuredis_suite.lua;
#X msg 9 29 start;
#X msg 59 30 stop;
#X msg 9 64 reset;
#X msg 8 97 start;
#X msg 56 97 stop;
#X obj 265 80 print pdtest:::;
#X obj 113 78 route list;
#X obj 262 173 print spuredis:::;
#X obj -60 171 print spuredis:::;
#X obj -69 130 print >>>spuredis;
#X connect 0 0 15 0;
#X connect 0 0 3 0;
#X connect 1 0 0 0;
#X connect 1 0 16 0;
#X connect 1 1 2 0;
#X connect 3 0 4 0;
#X connect 3 1 5 2;
#X connect 3 2 5 3;
#X connect 3 3 5 4;
#X connect 4 0 5 1;
#X connect 5 0 12 0;
#X connect 5 0 13 0;
#X connect 6 0 5 0;
#X connect 7 0 5 0;
#X connect 8 0 5 0;
#X connect 9 0 5 0;
#X connect 10 0 0 0;
#X connect 11 0 0 0;
#X connect 13 0 1 0;
