#N canvas 645 327 450 300 10;
#X obj 55 257 print :::;
#X msg 18 34 list result;
#X obj 23 77 pack result list;
#X msg 134 55 list result;
#X msg 266 16 list BAR FOO;
#X obj 134 151 route list;
#X obj 280 52 t b b;
#X obj 136 120 list append;
#X floatatom 178 188 5 0 0 0 - - -;
#X msg 242 187 FOO BAR;
#X obj 169 223 list;
#X connect 3 0 7 0;
#X connect 4 0 6 0;
#X connect 4 0 7 1;
#X connect 5 0 0 0;
#X connect 6 0 3 0;
#X connect 7 0 5 0;
#X connect 8 0 10 0;
#X connect 9 0 10 0;
#X connect 10 0 0 0;
