#N canvas 672 28 371 386 10;
#X obj 18 147 puredis;
#X obj 82 319 s pdunit;
#X obj 19 15 pdunit;
#X obj 273 213 spuredis;
#X obj 18 123 route puredis apuredis spuredis;
#X obj 125 241 print right;
#X obj 136 209 print bang;
#X obj 130 172 metro 500;
#X obj 77 192 apuredis;
#X obj 54 64 print from-python;
#X connect 0 0 1 0;
#X connect 2 0 4 0;
#X connect 2 0 9 0;
#X connect 3 0 1 0;
#X connect 4 0 0 0;
#X connect 4 1 8 0;
#X connect 4 2 3 0;
#X connect 7 0 6 0;
#X connect 7 0 8 0;
#X connect 8 0 1 0;
#X connect 8 1 5 0;
#X connect 8 1 7 0;
