#N canvas 642 30 529 501 10;
#X obj 15 11 netreceive 30321;
#X obj 268 187 loadbang;
#X msg 268 209 connect 127.0.0.1 30322;
#X obj 268 231 netsend;
#X obj 18 416 spigot 0;
#X obj 18 437 list prepend send;
#X obj 18 458 list trim;
#X obj 268 282 &&;
#X obj 268 257 t b f;
#X obj 15 31 t a a;
#X obj 47 52 list prepend set;
#X obj 47 73 list trim;
#X msg 47 94 test message 1 2 3;
#X obj 268 302 t f f;
#X obj 76 148 outlet;
#X obj 267 344 outlet;
#X obj 19 332 list prepend unit;
#X obj -32 236 r python;
#X msg -95 198 \; pd quit \;;
#X obj -93 119 route exit case should;
#X obj 31 298 list prepend;
#X obj 38 218 list prepend;
#X obj -48 149 list prepend case;
#X obj 44 179 list prepend should;
#X obj -31 266 list prepend data;
#X connect 0 0 9 0;
#X connect 0 1 7 0;
#X connect 1 0 2 0;
#X connect 2 0 3 0;
#X connect 3 0 8 0;
#X connect 4 0 5 0;
#X connect 5 0 6 0;
#X connect 6 0 3 0;
#X connect 7 0 13 0;
#X connect 8 0 7 0;
#X connect 8 1 7 1;
#X connect 9 0 19 0;
#X connect 9 1 10 0;
#X connect 10 0 11 0;
#X connect 11 0 12 0;
#X connect 13 0 15 0;
#X connect 13 1 4 1;
#X connect 16 0 4 0;
#X connect 17 0 24 0;
#X connect 19 0 18 0;
#X connect 19 1 22 0;
#X connect 19 2 23 0;
#X connect 19 3 14 0;
#X connect 20 0 16 0;
#X connect 21 0 20 1;
#X connect 22 0 21 1;
#X connect 23 0 21 0;
#X connect 24 0 20 0;
