#N canvas 615 69 347 606 10;
#X obj 195 307 print right;
#X obj 92 306 print left;
#X obj 206 275 print bang;
#X obj 200 238 metro 500;
#X obj 106 258 apuredis;
#X text 18 11 apuredis: async puredis object;
#X text 18 38 Usage:;
#X text 33 62 FOR COMMAND OPERATIONS SEE PUREDIS COMMAND API;
#X text 21 115 - BANG on the left inlet will look for Redis Reply.
;
#X text 21 133 - BANG and command will output # of waiting replies.
;
#X text 21 151 - BANG until all replies are out.;
#X obj 100 517 apuredis;
#X obj 191 554 print right;
#X obj 88 553 print left;
#X msg 138 465 start;
#X msg 158 486 stop;
#X msg 64 413 command SET FOO BAR;
#X text 24 358 - start will start async yielding of data;
#X text 24 376 - stop will start async yielding of data;
#X text 19 93 Manual async API:;
#X text 20 342 Automatic async API:;
#X msg 30 187 command HMSET MYHASH KEY1 VALUE1 KEY2 VALUE2;
#X msg 106 210 command HMGET MYHASH KEY1 KEY2;
#X msg 95 435 command GET FOO;
#X connect 3 0 2 0;
#X connect 3 0 4 0;
#X connect 4 0 1 0;
#X connect 4 1 0 0;
#X connect 4 1 3 0;
#X connect 11 0 13 0;
#X connect 11 1 12 0;
#X connect 14 0 11 0;
#X connect 15 0 11 0;
#X connect 16 0 11 0;
#X connect 21 0 4 0;
#X connect 22 0 4 0;
#X connect 23 0 11 0;
