#N canvas 219 22 880 731 10;
#X obj 5 10 puredis;
#X obj 127 10 puredis 127.0.0.1 6379;
#X text -118 8 Initialization:;
#X text 78 10 or;
#X obj -48 69 puredis;
#X msg -48 45 command SET FOO BAR;
#X obj -48 93 print SET;
#X obj 105 70 puredis;
#X text -119 42 Strings:;
#X msg 105 46 command GET FOO;
#X obj 105 94 print GET;
#X obj -48 205 puredis;
#X obj 178 167 puredis;
#X text -112 132 Lists:;
#X msg -49 132 command LPUSH MYLIST VALUE1;
#X msg -41 157 command LPUSH MYLIST VALUE2;
#X msg -34 180 command LPUSH MYLIST VALUE3;
#X obj -48 228 print LPUSH;
#X msg 178 133 command LPOP MYLIST;
#X obj 178 202 print LPOP;
#X obj 339 167 puredis;
#X msg 339 133 command LRANGE MYLIST 0 -1;
#X obj 339 202 print LRANGE;
#X obj -52 296 puredis;
#X obj 36 332 puredis;
#X text -118 266 Hashes:;
#X msg -52 269 command HMSET MYHASH key1 value1 key2 value2 key3 value3
;
#X msg 36 308 command HGET MYHASH key2;
#X obj -52 322 print HMSET;
#X obj 36 357 print HGET;
#X obj 215 333 puredis;
#X msg 215 309 command HMGET MYHASH key1 key3;
#X obj 215 358 print HMGET;
#X obj 427 334 puredis;
#X msg 427 310 command HVALS MYHASH;
#X obj 427 359 print HVALS;
#X obj -53 506 puredis;
#X obj 159 435 puredis;
#X text -105 396 Sets:;
#X msg -52 399 command SADD MYSET A;
#X msg -42 419 command SADD MYSET B;
#X msg -32 440 command SADD MYSET C;
#X msg -22 461 command SADD MYALTSET C;
#X msg -12 482 command SADD MYALTSET D;
#X msg 159 401 command SINTER MYSET MYSETALT;
#X obj -53 530 print SADD;
#X obj 159 470 print SINTER;
#X obj 362 436 puredis;
#X msg 362 402 command SUNION MYSET MYSETALT;
#X obj 362 471 print SUNION;
#X obj -54 671 puredis;
#X obj 191 590 puredis;
#X text -140 563 SortedSets:;
#X msg -52 566 command ZADD MYZSET 1 A;
#X msg -42 587 command ZADD MYZSET 2 B;
#X msg -33 607 command ZADD MYZSET 3 C;
#X msg -25 628 command ZADD MYZSET 10 D;
#X msg -16 649 command ZADD MYZSET 100 E;
#X msg 191 567 command ZINCRBY MYZSET 1 C;
#X obj -54 695 print ZADD;
#X obj 191 614 print ZINCRBY;
#X obj 190 670 puredis;
#X msg 190 647 command ZRANGE MYZSET 0 2 WITHSCORES;
#X obj 190 694 print ZRANGE;
#X obj 416 592 puredis;
#X msg 416 569 command ZRANGEBYSCORE MYZSET 10 200 WITHSCORES;
#X obj 416 616 print ZRANGEBYSCORE;
#X connect 4 0 6 0;
#X connect 5 0 4 0;
#X connect 7 0 10 0;
#X connect 9 0 7 0;
#X connect 11 0 17 0;
#X connect 12 0 19 0;
#X connect 14 0 11 0;
#X connect 15 0 11 0;
#X connect 16 0 11 0;
#X connect 18 0 12 0;
#X connect 20 0 22 0;
#X connect 21 0 20 0;
#X connect 23 0 28 0;
#X connect 24 0 29 0;
#X connect 26 0 23 0;
#X connect 27 0 24 0;
#X connect 30 0 32 0;
#X connect 31 0 30 0;
#X connect 33 0 35 0;
#X connect 34 0 33 0;
#X connect 36 0 45 0;
#X connect 37 0 46 0;
#X connect 39 0 36 0;
#X connect 40 0 36 0;
#X connect 41 0 36 0;
#X connect 42 0 36 0;
#X connect 43 0 36 0;
#X connect 44 0 37 0;
#X connect 47 0 49 0;
#X connect 48 0 47 0;
#X connect 50 0 59 0;
#X connect 51 0 60 0;
#X connect 53 0 50 0;
#X connect 54 0 50 0;
#X connect 55 0 50 0;
#X connect 56 0 50 0;
#X connect 57 0 50 0;
#X connect 58 0 51 0;
#X connect 61 0 63 0;
#X connect 62 0 61 0;
#X connect 64 0 66 0;
#X connect 65 0 64 0;
